<?xml version="1.0" encoding="iso-8859-1"?>
<!-- Generator: Adobe Illustrator 19.0.0, SVG Export Plug-In . SVG Version: 6.00 Build 0)  -->
<svg version="1.1" id="Capa_1" xmlns="http://www.w3.org/2000/svg" xmlns:xlink="http://www.w3.org/1999/xlink" x="0px" y="0px"
	 viewBox="0 0 512 512" style="enable-background:new 0 0 512 512;" xml:space="preserve">
<g>
	<g>
		<path d="M443.733,0H68.267C30.564,0,0,30.564,0,68.267v375.467C0,481.436,30.564,512,68.267,512h375.467
			C481.436,512,512,481.436,512,443.733V68.267C512,30.564,481.436,0,443.733,0z M457.875,252.44
			c-1.765,1.871-3.584,3.689-5.455,5.454L235.674,474.641c-6.136,7.155-16.911,7.98-24.065,1.844
			c-7.155-6.136-7.98-16.911-1.844-24.065c0.572-0.667,1.195-1.289,1.863-1.86l216.747-216.747
			c38.317-38.875,37.865-101.451-1.01-139.767c-38.481-37.929-100.29-37.925-138.766,0.008L71.851,310.801
			c-26.137,26.515-25.831,69.197,0.684,95.334c26.246,25.872,68.405,25.872,94.651,0l196.267-196.267
			c11.926-12.449,11.501-32.209-0.948-44.134c-12.073-11.565-31.114-11.565-43.187,0L131.584,353.468
			c-6.78,6.548-17.584,6.36-24.132-0.42c-6.388-6.614-6.388-17.099,0-23.713l187.733-187.733c25.515-25.515,66.884-25.515,92.399,0
			s25.515,66.884,0,92.399L191.317,430.268c-40.116,39.192-104.407,38.443-143.599-1.673c-38.548-39.456-38.548-102.47,0-141.926
			L264.465,69.922c50.401-53.409,134.555-55.847,187.964-5.446C505.838,114.877,508.276,199.031,457.875,252.44z"/>
	</g>
</g>
<g>
</g>
<g>
</g>
<g>
</g>
<g>
</g>
<g>
</g>
<g>
</g>
<g>
</g>
<g>
</g>
<g>
</g>
<g>
</g>
<g>
</g>
<g>
</g>
<g>
</g>
<g>
</g>
<g>
</g>
</svg>
