<svg width="34" height="33" viewBox="0 0 34 33" fill="none" xmlns="http://www.w3.org/2000/svg">
<path fill-rule="evenodd" clip-rule="evenodd" d="M16.8873 0.885712C7.7127 0.885712 0.281677 8.25028 0.281677 17.3429C0.281677 24.6251 5.03504 30.776 11.6358 32.9566C12.4661 33.1006 12.7774 32.6069 12.7774 32.1749C12.7774 31.784 12.7567 30.488 12.7567 29.1097C8.58449 29.8709 7.50513 28.1017 7.17302 27.176C6.9862 26.7029 6.17668 25.2423 5.47094 24.8514C4.88974 24.5429 4.05946 23.7817 5.45018 23.7611C6.75787 23.7406 7.69194 24.9543 8.0033 25.448C9.4978 27.9371 11.8849 27.2377 12.8397 26.8057C12.985 25.736 13.4209 25.016 13.8983 24.6046C10.2035 24.1931 6.34273 22.7737 6.34273 16.4789C6.34273 14.6891 6.9862 13.208 8.04481 12.056C7.87876 11.6446 7.29756 9.95771 8.21087 7.69485C8.21087 7.69485 9.60159 7.26285 12.7774 9.38171C14.1059 9.01143 15.5173 8.82628 16.9288 8.82628C18.3403 8.82628 19.7518 9.01143 21.0802 9.38171C24.2561 7.24228 25.6468 7.69485 25.6468 7.69485C26.5601 9.95771 25.9789 11.6446 25.8128 12.056C26.8715 13.208 27.5149 14.6686 27.5149 16.4789C27.5149 22.7943 23.6334 24.1931 19.9386 24.6046C20.5406 25.1189 21.0595 26.1063 21.0595 27.6491C21.0595 29.8503 21.0387 31.6194 21.0387 32.1749C21.0387 32.6069 21.3501 33.1211 22.1804 32.9566C25.4768 31.8536 28.3413 29.7538 30.3706 26.953C32.3999 24.1521 33.492 20.791 33.4929 17.3429C33.4929 8.25028 26.0619 0.885712 16.8873 0.885712Z" fill="white"/>
</svg>
