<svg width="34" height="34" viewBox="0 0 34 34" fill="none" xmlns="http://www.w3.org/2000/svg">
<ellipse cx="16.8873" cy="16.8286" rx="16.6056" ry="16.4571" fill="white"/>
<g clip-path="url(#clip0)">
<path d="M24.4696 12.7029C24.4696 9.03069 20.5584 5.85713 17.2189 5.85713C13.8795 5.85713 9.96826 9.03069 9.96826 12.7029C9.96826 16.2165 17.2189 27.8227 17.2189 27.8227C17.2189 27.8227 24.4696 16.2165 24.4696 12.7029ZM12.7816 12.4536C12.7816 10.0281 14.7715 8.05595 17.2189 8.05595C19.6663 8.05595 21.6562 10.0281 21.6562 12.4536C21.6562 14.8791 19.6663 16.8512 17.2189 16.8512C14.7715 16.8512 12.7816 14.8791 12.7816 12.4536Z" fill="#3F3F3F"/>
</g>
<defs>
<clipPath id="clip0">
<rect width="14.5013" height="21.9429" fill="white" transform="translate(9.96826 5.85713)"/>
</clipPath>
</defs>
</svg>
