<svg width="181" height="42" viewBox="0 0 181 42" fill="none" xmlns="http://www.w3.org/2000/svg">
<path d="M21.3888 14.5682C17.5774 14.5682 14.467 17.6508 14.467 21.4282C14.467 25.2055 17.5774 28.2881 21.3888 28.2881C25.2002 28.2881 28.3106 25.2055 28.3106 21.4282C28.3106 17.6508 25.2002 14.5682 21.3888 14.5682ZM42.1491 21.4282C42.1491 18.5874 42.1751 15.7724 42.0141 12.9369C41.8531 9.64328 41.095 6.72021 38.6648 4.31177C36.2295 1.89819 33.2852 1.15198 29.9619 0.992451C27.0955 0.832918 24.2551 0.858649 21.394 0.858649C18.5276 0.858649 15.6872 0.832918 12.8261 0.992451C9.50277 1.15198 6.55333 1.90334 4.12316 4.31177C1.68779 6.72536 0.934856 9.64328 0.773883 12.9369C0.61291 15.7776 0.638874 18.5926 0.638874 21.4282C0.638874 24.2637 0.61291 27.0839 0.773883 29.9195C0.934856 33.213 1.69299 36.1361 4.12316 38.5445C6.55852 40.9581 9.50277 41.7043 12.8261 41.8639C15.6924 42.0234 18.5328 41.9977 21.394 41.9977C24.2603 41.9977 27.1007 42.0234 29.9619 41.8639C33.2852 41.7043 36.2346 40.953 38.6648 38.5445C41.1002 36.131 41.8531 33.213 42.0141 29.9195C42.1803 27.0839 42.1491 24.2689 42.1491 21.4282ZM21.3888 31.9831C15.4951 31.9831 10.7386 27.2691 10.7386 21.4282C10.7386 15.5872 15.4951 10.8732 21.3888 10.8732C27.2825 10.8732 32.039 15.5872 32.039 21.4282C32.039 27.2691 27.2825 31.9831 21.3888 31.9831ZM32.4751 12.906C31.0991 12.906 29.9879 11.8047 29.9879 10.4409C29.9879 9.07719 31.0991 7.9759 32.4751 7.9759C33.8512 7.9759 34.9624 9.07719 34.9624 10.4409C34.9629 10.7648 34.8988 11.0855 34.7739 11.3848C34.6491 11.684 34.4659 11.9559 34.2348 12.1849C34.0038 12.4139 33.7294 12.5954 33.4275 12.7192C33.1255 12.8429 32.8019 12.9064 32.4751 12.906Z" fill="white"/>
<path d="M90.5846 0.857117C79.1173 0.857117 69.8275 10.0652 69.8275 21.4285C69.8275 32.7919 79.1186 42 90.5846 42C102.052 42 111.342 32.7919 111.342 21.4285C111.342 10.0652 102.05 0.857117 90.5846 0.857117ZM100.78 14.9505L97.3728 30.8609C97.121 31.989 96.4434 32.2624 95.498 31.7315L90.3087 27.9411L87.8058 30.33C87.5299 30.6034 87.2956 30.8357 86.7599 30.8357L87.1282 25.6012L96.7447 16.9904C97.1639 16.6254 96.6523 16.4184 96.0992 16.7834L84.2142 24.1984L79.0919 22.6137C77.979 22.266 77.9536 21.5108 79.3262 20.98L99.3387 13.3314C100.268 12.9996 101.08 13.5557 100.778 14.9492L100.78 14.9505Z" fill="white"/>
<path fill-rule="evenodd" clip-rule="evenodd" d="M139.018 21.5434C139.018 31.7708 146.513 40.2754 156.315 42V27.1423H151.126V21.4285H156.315V16.8565C156.315 11.7137 159.659 8.85769 164.388 8.85769C165.886 8.85769 167.502 9.08569 168.999 9.31369V14.5714H166.348C163.81 14.5714 163.234 15.828 163.234 17.4291V21.4285H168.769L167.847 27.1423H163.234V42C173.037 40.2754 180.532 31.7725 180.532 21.5434C180.532 10.1657 171.191 0.857117 159.775 0.857117C148.358 0.857117 139.018 10.1657 139.018 21.5434Z" fill="white"/>
</svg>
