<svg width="43" height="42" viewBox="0 0 43 42" fill="none" xmlns="http://www.w3.org/2000/svg">
<path d="M21.5846 0.857117C10.1173 0.857117 0.827515 10.0652 0.827515 21.4285C0.827515 32.7919 10.1186 42 21.5846 42C33.0518 42 42.3416 32.7919 42.3416 21.4285C42.3416 10.0652 33.0505 0.857117 21.5846 0.857117ZM31.7796 14.9505L28.3728 30.8609C28.121 31.989 27.4434 32.2624 26.498 31.7315L21.3087 27.9411L18.8058 30.33C18.5299 30.6034 18.2956 30.8357 17.7599 30.8357L18.1282 25.6012L27.7447 16.9904C28.1639 16.6254 27.6523 16.4184 27.0992 16.7834L15.2142 24.1984L10.0919 22.6137C8.97901 22.266 8.95356 21.5108 10.3262 20.98L30.3387 13.3314C31.2681 12.9996 32.0796 13.5557 31.7783 14.9492L31.7796 14.9505Z" fill="white"/>
</svg>
