<svg width="34" height="34" viewBox="0 0 34 34" fill="none" xmlns="http://www.w3.org/2000/svg">
<ellipse cx="16.8873" cy="16.9428" rx="16.6056" ry="16.4571" fill="white"/>
<g clip-path="url(#clip0)">
<path d="M27.9577 24.0156V11.8761L21.1722 17.007L27.9136 24.1903L27.9577 24.0156Z" fill="#3F3F3F"/>
<path d="M6.10254 10.4569L16.8976 18.6008L27.6706 10.435C27.4503 10.2167 27.1418 10.0857 26.8114 10.0857H6.96174C6.60924 10.0857 6.30082 10.2385 6.10254 10.4569Z" fill="#3F3F3F"/>
<path d="M5.81683 11.9197V24.0156L5.86089 24.2339L12.6243 17.0288L5.81683 11.9197Z" fill="#3F3F3F"/>
<path d="M27.2967 24.8889L20.4232 17.5746L17.2948 19.9545L16.8982 20.0855L16.4797 19.9545L13.3513 17.5965L6.49976 24.9108L6.9624 24.9981H26.812L27.2967 24.8889Z" fill="#3F3F3F"/>
</g>
<defs>
<clipPath id="clip0">
<rect width="22.1408" height="14.9124" fill="white" transform="translate(5.81683 10.0857)"/>
</clipPath>
</defs>
</svg>
