<svg width="20" height="20" viewBox="0 0 20 20" fill="none" xmlns="http://www.w3.org/2000/svg">
<path d="M8.4563 11.5148C9.27545 12.3339 10.3864 12.7941 11.5448 12.7941C12.7032 12.7941 13.8142 12.3339 14.6333 11.5148L17.7213 8.42684C18.5275 7.60504 18.9766 6.49821 18.9711 5.34703C18.9656 4.19584 18.5058 3.09338 17.6918 2.27936C16.8778 1.46534 15.7753 1.00558 14.6241 1.00005C13.4729 0.994523 12.3661 1.44367 11.5443 2.24984L10.0003 3.79384M11.5443 8.42684C10.7252 7.60807 9.61445 7.14812 8.4563 7.14812C7.29815 7.14812 6.18741 7.60807 5.3683 8.42684L2.2793 11.5148C1.46018 12.334 1 13.4449 1 14.6033C1 15.7618 1.46018 16.8727 2.2793 17.6918C3.09842 18.511 4.20939 18.9711 5.3678 18.9711C6.52621 18.9711 7.63718 18.511 8.4563 17.6918L10.0003 16.1478L11.5443 8.42684Z" stroke="white" stroke-width="2" stroke-linecap="round" stroke-linejoin="round"/>
</svg>
